<svg aria-hidden="true" style="position: absolute; width: 0; height: 0; overflow: hidden;" version="1.1" xmlns="http://www.w3.org/2000/svg" xmlns:xlink="http://www.w3.org/1999/xlink">
<defs>
<symbol id="icon-facebook2" viewBox="0 0 32 32">
<path d="M29 0h-26c-1.65 0-3 1.35-3 3v26c0 1.65 1.35 3 3 3h13v-14h-4v-4h4v-2c0-3.306 2.694-6 6-6h4v4h-4c-1.1 0-2 0.9-2 2v2h6l-1 4h-5v14h9c1.65 0 3-1.35 3-3v-26c0-1.65-1.35-3-3-3z"></path>
</symbol>
<symbol id="icon-github" viewBox="0 0 32 32">
<path d="M16 0.395c-8.836 0-16 7.163-16 16 0 7.069 4.585 13.067 10.942 15.182 0.8 0.148 1.094-0.347 1.094-0.77 0-0.381-0.015-1.642-0.022-2.979-4.452 0.968-5.391-1.888-5.391-1.888-0.728-1.849-1.776-2.341-1.776-2.341-1.452-0.993 0.11-0.973 0.11-0.973 1.606 0.113 2.452 1.649 2.452 1.649 1.427 2.446 3.743 1.739 4.656 1.33 0.143-1.034 0.558-1.74 1.016-2.14-3.554-0.404-7.29-1.777-7.29-7.907 0-1.747 0.625-3.174 1.649-4.295-0.166-0.403-0.714-2.030 0.155-4.234 0 0 1.344-0.43 4.401 1.64 1.276-0.355 2.645-0.532 4.005-0.539 1.359 0.006 2.729 0.184 4.008 0.539 3.054-2.070 4.395-1.64 4.395-1.64 0.871 2.204 0.323 3.831 0.157 4.234 1.026 1.12 1.647 2.548 1.647 4.295 0 6.145-3.743 7.498-7.306 7.895 0.574 0.497 1.085 1.47 1.085 2.963 0 2.141-0.019 3.864-0.019 4.391 0 0.426 0.288 0.925 1.099 0.768 6.354-2.118 10.933-8.113 10.933-15.18 0-8.837-7.164-16-16-16z"></path>
</symbol>
<symbol id="icon-linkedin" viewBox="0 0 32 32">
<path d="M29 0h-26c-1.65 0-3 1.35-3 3v26c0 1.65 1.35 3 3 3h26c1.65 0 3-1.35 3-3v-26c0-1.65-1.35-3-3-3zM12 26h-4v-14h4v14zM10 10c-1.106 0-2-0.894-2-2s0.894-2 2-2c1.106 0 2 0.894 2 2s-0.894 2-2 2zM26 26h-4v-8c0-1.106-0.894-2-2-2s-2 0.894-2 2v8h-4v-14h4v2.481c0.825-1.131 2.087-2.481 3.5-2.481 2.488 0 4.5 2.238 4.5 5v9z"></path>
</symbol>
<symbol id="icon-html5" viewBox="0 0 32 32">
<path fill="#e34f26" style="fill: var(--color3, #e34f26)" d="M2 0h28l-2.547 28.751-11.484 3.249-11.419-3.251zM11.375 13l-0.309-3.624 13.412 0.004 0.307-3.496-17.568-0.004 0.931 10.68h12.168l-0.435 4.568-3.88 1.072-3.94-1.080-0.251-2.813h-3.479l0.44 5.561 7.229 1.933 7.172-1.924 0.992-10.876z"></path>
</symbol>
<symbol id="icon-css3" viewBox="0 0 32 32">
<path fill="#1572b6" style="fill: var(--color2, #1572b6)" d="M2 0h28l-2.547 28.751-11.484 3.249-11.42-3.251zM24.787 5.884l-17.573-0.004 0.284 3.496 13.5 0.003-0.34 3.621h-8.853l0.32 3.431h8.243l-0.488 4.697-3.88 1.072-3.941-1.080-0.251-2.813h-3.48l0.387 5.14 7.287 2.271 7.164-2.040z"></path>
</symbol>
<symbol id="icon-javascript" viewBox="0 0 32 32">
<path d="M0 0h32v32h-32zM29.379 24.368c-0.233-1.46-1.184-2.687-4.004-3.831-0.981-0.46-2.072-0.78-2.396-1.52-0.121-0.44-0.14-0.68-0.061-0.94 0.2-0.861 1.22-1.12 2.020-0.88 0.52 0.16 1 0.56 1.301 1.2 1.379-0.901 1.379-0.901 2.34-1.5-0.36-0.56-0.539-0.801-0.781-1.040-0.84-0.94-1.959-1.42-3.779-1.379l-0.94 0.119c-0.901 0.22-1.76 0.7-2.28 1.34-1.52 1.721-1.081 4.721 0.759 5.961 1.82 1.36 4.481 1.659 4.821 2.94 0.32 1.56-1.16 2.060-2.621 1.88-1.081-0.24-1.68-0.781-2.34-1.781l-2.44 1.401c0.28 0.64 0.6 0.919 1.080 1.479 2.32 2.341 8.12 2.221 9.161-1.339 0.039-0.12 0.32-0.94 0.099-2.2zM17.401 14.708h-2.997c0 2.584-0.012 5.152-0.012 7.74 0 1.643 0.084 3.151-0.184 3.615-0.44 0.919-1.573 0.801-2.088 0.64-0.528-0.261-0.796-0.621-1.107-1.14-0.084-0.14-0.147-0.261-0.169-0.261l-2.433 1.5c0.407 0.84 1 1.563 1.765 2.023 1.14 0.68 2.672 0.9 4.276 0.54 1.044-0.301 1.944-0.921 2.415-1.881 0.68-1.24 0.536-2.76 0.529-4.461 0.016-2.739 0-5.479 0-8.239z"></path>
</symbol>
<symbol id="icon-angular" viewBox="0 0 32 32">
<path fill="#dd0031" style="fill: var(--color1, #dd0031)" d="M13.24 16.86h5.512l-2.757-6.54zM15.995 0.012l-15.080 5.305 2.3 19.68 12.78 6.991 12.784-6.984 2.299-19.684zM25.405 24.408h-3.515l-1.893-4.668h-8.004l-1.893 4.668h-3.517l9.413-20.864z"></path>
</symbol>
<symbol id="icon-typescript" viewBox="0 0 32 32">
<path fill="#007acc" style="fill: var(--color2, #007acc)" d="M0 16v16h32v-32h-32zM25.788 14.725c0.813 0.203 1.432 0.564 2.001 1.153 0.295 0.315 0.732 0.888 0.767 1.027 0.011 0.040-1.381 0.973-2.224 1.497-0.031 0.020-0.153-0.112-0.289-0.315-0.413-0.6-0.844-0.859-1.504-0.904-0.971-0.067-1.595 0.441-1.589 1.289-0.001 0.015-0.001 0.032-0.001 0.050 0 0.201 0.051 0.391 0.14 0.557l-0.003-0.006c0.213 0.441 0.611 0.707 1.853 1.244 2.292 0.987 3.272 1.636 3.881 2.56 0.68 1.031 0.833 2.677 0.371 3.901-0.507 1.331-1.767 2.235-3.54 2.533-0.548 0.097-1.848 0.083-2.437-0.024-1.285-0.229-2.504-0.864-3.256-1.697-0.295-0.324-0.869-1.173-0.833-1.233 0.015-0.021 0.147-0.103 0.293-0.188 0.144-0.081 0.681-0.392 1.189-0.687l0.92-0.533 0.193 0.285c0.269 0.411 0.857 0.975 1.213 1.163 1.021 0.539 2.423 0.463 3.113-0.157 0.257-0.217 0.419-0.54 0.419-0.9 0-0.021-0.001-0.042-0.002-0.062l0 0.003c0-0.371-0.047-0.533-0.24-0.813-0.248-0.355-0.756-0.653-2.199-1.28-1.651-0.711-2.361-1.152-3.012-1.853-0.392-0.445-0.694-0.981-0.871-1.57l-0.008-0.030c-0.121-0.452-0.152-1.585-0.056-2.041 0.34-1.596 1.544-2.707 3.281-3.037 0.564-0.107 1.875-0.067 2.428 0.071zM18.276 16.061l0.011 1.311h-4.167v11.835h-2.947v-11.835h-4.163v-1.285c0-0.712 0.015-1.307 0.035-1.32 0.016-0.021 2.551-0.032 5.623-0.027l5.593 0.016z"></path>
</symbol>
<symbol id="icon-java" viewBox="0 0 32 32">
<path fill="#dd0031" style="fill: var(--color2, #dd0031)" d="M11.801 24.747c0 0-1.223 0.712 0.871 0.952 2.536 0.291 3.832 0.249 6.625-0.281 0 0 0.736 0.461 1.761 0.861-6.265 2.684-14.177-0.157-9.257-1.532zM11.035 21.244c0 0-1.371 1.015 0.723 1.232 2.709 0.279 4.848 0.303 8.551-0.411 0 0 0.512 0.519 1.316 0.803-7.572 2.215-16.009 0.173-10.589-1.624zM17.488 15.3c1.544 1.777-0.405 3.377-0.405 3.377s3.919-2.024 2.119-4.557c-1.681-2.363-2.971-3.536 4.009-7.584 0-0.001-10.955 2.735-5.723 8.764zM25.773 27.339c0 0 0.905 0.745-0.996 1.321-3.616 1.096-15.051 1.425-18.225 0.044-1.141-0.497 1-1.187 1.672-1.331 0.703-0.152 1.104-0.124 1.104-0.124-1.271-0.895-8.208 1.756-3.524 2.516 12.773 2.071 23.283-0.933 19.969-2.427zM12.389 17.613c0 0-5.816 1.381-2.059 1.883 1.585 0.212 4.748 0.164 7.693-0.083 2.408-0.203 4.824-0.636 4.824-0.636s-0.849 0.363-1.464 0.783c-5.905 1.553-17.315 0.831-14.029-0.757 2.776-1.341 5.035-1.189 5.035-1.189zM22.821 23.445c6.004-3.12 3.228-6.119 1.291-5.713-0.473 0.099-0.687 0.184-0.687 0.184s0.176-0.276 0.513-0.396c3.833-1.348 6.781 3.975-1.237 6.083 0-0.001 0.093-0.083 0.12-0.157zM19.201 0c0 0 3.325 3.325-3.153 8.44-5.195 4.103-1.184 6.443-0.001 9.115-3.032-2.737-5.257-5.144-3.765-7.385 2.192-3.292 8.263-4.887 6.92-10.169zM12.979 31.899c5.763 0.369 14.612-0.204 14.821-2.931 0 0-0.403 1.033-4.763 1.855-4.917 0.925-10.985 0.817-14.583 0.224 0-0.001 0.737 0.609 4.524 0.852z"></path>
</symbol>
<symbol id="icon-teamwork" viewBox="0 0 392.727 392.727" xml:space="preserve" xmlns="http://www.w3.org/2000/svg">
<path style="fill:#fff" d="M196.267 328.598c-25.6 0-46.998 18.166-52.105 42.279h104.081c-4.978-24.113-26.376-42.279-51.976-42.279z"/>
<path style="fill:#ffc10d" d="M196.267 273.907c8.469 0 15.451-6.982 15.451-15.451s-6.982-15.451-15.451-15.451-15.451 6.982-15.451 15.451 6.982 15.451 15.451 15.451z"/>
<path style="fill:#194f82" d="M196.267 306.747c-41.309 0-74.925 33.616-74.925 74.925 0 6.012 4.848 10.925 10.925 10.925h128.194c6.012 0 10.925-4.848 10.925-10.925-.194-41.244-33.81-74.925-75.119-74.925zm-52.105 64.13c5.042-24.113 26.505-42.279 52.105-42.279s46.998 18.166 52.105 42.279h-104.21zM196.267 295.693c20.558 0 37.301-16.679 37.301-37.301 0-20.558-16.679-37.301-37.301-37.301s-37.301 16.679-37.301 37.301 16.743 37.301 37.301 37.301zm0-52.687c8.469 0 15.451 6.982 15.451 15.45 0 8.469-6.982 15.451-15.451 15.451s-15.451-6.982-15.451-15.451c0-8.597 6.982-15.45 15.451-15.45z"/>
<path style="fill:#fff" d="M74.925 52.881c8.469 0 15.451-6.982 15.451-15.451s-6.982-15.45-15.451-15.45-15.45 6.982-15.45 15.45 6.982 15.451 15.45 15.451z"/>
<path style="fill:#56ace0" d="M317.608 107.507c-25.6 0-46.998 18.166-52.105 42.279h104.081c-5.043-24.113-26.441-42.279-51.976-42.279z"/>
<path style="fill:#ffc10d" d="M74.925 107.507c-25.6 0-46.998 18.166-52.105 42.279h104.081c-4.913-24.113-26.376-42.279-51.976-42.279zM317.608 52.881c8.469 0 15.451-6.982 15.451-15.451s-6.982-15.451-15.451-15.451c-8.469 0-15.451 6.982-15.451 15.451s6.853 15.451 15.451 15.451z"/>
<path style="fill:#194f82" d="M74.925 85.721C33.616 85.721 0 119.337 0 160.646c0 6.012 4.848 10.925 10.925 10.925h128.194c6.012 0 10.925-4.848 10.925-10.925-.064-41.309-33.745-74.925-75.119-74.925zm-51.976 64.065c5.042-24.113 26.44-42.279 51.976-42.279 25.6 0 46.998 18.166 52.105 42.279H22.949zM74.925 74.667c20.558 0 37.301-16.679 37.301-37.301S95.483.129 74.925.129 37.689 16.808 37.689 37.43s16.679 37.237 37.236 37.237zm0-52.752c8.469 0 15.451 6.982 15.451 15.451s-6.982 15.451-15.451 15.451S59.474 45.9 59.474 37.366s6.983-15.451 15.451-15.451zM317.608 85.721c-41.309 0-74.925 33.616-74.925 74.925 0 6.012 4.848 10.925 10.925 10.925h128.194c6.012 0 10.925-4.848 10.925-10.925-.194-41.309-33.81-74.925-75.119-74.925zm-52.105 64.065c5.042-24.113 26.505-42.279 52.105-42.279s46.998 18.166 52.105 42.279h-104.21zM317.608 74.667c20.558 0 37.301-16.679 37.301-37.301S338.166.129 317.608.129c-20.558 0-37.301 16.679-37.301 37.301s16.744 37.237 37.301 37.237zm0-52.752c8.469 0 15.451 6.982 15.451 15.451s-6.982 15.451-15.451 15.451c-8.469 0-15.451-6.982-15.451-15.451s6.853-15.451 15.451-15.451zM249.212 55.984l-22.238-32.388c-3.426-4.978-10.15-6.206-14.998-2.78l-.259.129c-4.978 3.426-6.206 10.149-2.78 14.998l6.594 9.568c-26.182-3.426-53.075.065-77.834 10.343l-.065.065c-5.495 2.327-8.145 8.598-5.818 14.158l.129.129c2.327 5.495 8.598 8.145 14.158 5.818l.065-.065c21.398-8.857 44.735-11.895 67.362-8.792l-11.895 8.21c-4.913 3.426-6.206 10.149-2.78 14.998l.129.259c3.426 4.913 10.15 6.206 14.998 2.78l32.388-22.238c4.977-3.427 6.335-10.214 2.844-15.192zM117.075 299.96c-18.36-14.093-32.517-32.776-41.244-53.915l12.8 6.077c5.43 2.651 11.96.323 14.545-5.172 2.651-5.43.323-11.96-5.172-14.545l-35.297-16.873c-5.43-2.651-11.96-.323-14.545 5.172l-16.873 35.362c-2.651 5.43-.323 11.96 5.172 14.545 5.43 2.651 11.96.323 14.545-5.172l5.042-10.602c10.214 24.501 26.505 46.028 47.774 62.384a10.986 10.986 0 0 0 15.321-2.004c3.621-4.785 2.716-11.573-2.068-15.257zM337.778 203.83c-5.947-.776-11.442 3.426-12.218 9.438-3.038 22.949-12.154 44.541-26.117 62.642l-1.099-14.158c-.453-6.012-5.689-10.537-11.766-10.02-6.012.453-10.537 5.689-10.02 11.766l3.103 39.046c.453 6.012 5.689 10.537 11.766 10.02l39.046-3.103c6.012-.453 10.537-5.689 10.02-11.766-.453-6.012-5.689-10.537-11.766-10.02l-11.507.905a151.678 151.678 0 0 0 29.996-72.533c.711-6.075-3.426-11.441-9.438-12.217z"/>
</symbol>
<symbol id="icon-tasks-complete" xml:space="preserve" style="fill-rule:evenodd;clip-rule:evenodd;stroke-linejoin:round;stroke-miterlimit:2" viewBox="0 0 64 64" xmlns="http://www.w3.org/2000/svg">
<path style="fill:none" d="M-576 0H704v800H-576z"/>
<path d="m14.563 17.167 7.468-7.468 2.61 2.61-10.107 10.107-6.359-6.358 2.64-2.64 3.748 3.749Zm41.456.806H28.026v-3.969h27.993v3.969Z"/>
<path d="m14.563 17.167 7.468-7.468 2.61 2.61-10.107 10.107-6.359-6.358 2.64-2.64 3.748 3.749Zm41.456.806H28.026v-3.969h27.993v3.969ZM14.563 49.167l7.468-7.468 2.61 2.61-10.107 10.107-6.359-6.358 2.64-2.64 3.748 3.749Zm41.456.806H28.026v-3.969h27.993v3.969Z"/>
<path d="m14.563 49.167 7.468-7.468 2.61 2.61-10.107 10.107-6.359-6.358 2.64-2.64 3.748 3.749Zm41.456.806H28.026v-3.969h27.993v3.969ZM14.563 33.167l7.468-7.468 2.61 2.61-10.107 10.107-6.359-6.358 2.64-2.64 3.748 3.749Zm41.456.806H28.026v-3.969h27.993v3.969Z"/>
<path d="m14.563 33.167 7.468-7.468 2.61 2.61-10.107 10.107-6.359-6.358 2.64-2.64 3.748 3.749Zm41.456.806H28.026v-3.969h27.993v3.969Z"/>
</symbol>
<symbol id="icon-responsibility" viewBox="0 0 512 512" xml:space="preserve" xmlns="http://www.w3.org/2000/svg">
<path style="fill:#000" d="M0 304.849h132.853v169.759H0z"/>
<path style="fill:#939393" d="M189.574 174.553h132.853v300.056H189.574z"/>
<path style="fill: #e21b1b" d="M379.147 37.39H512v437.22H379.147z"/>
</symbol>
<symbol id="icon-communication" xml:space="preserve" viewBox="0 0 64 64" xmlns="http://www.w3.org/2000/svg">
<path d="M35 30c2.2 0 4-1.8 4-4s-1.8-4-4-4-4 1.8-4 4 1.8 4 4 4zm0-6c1.1 0 2 .9 2 2s-.9 2-2 2-2-.9-2-2 .9-2 2-2zM24 30c2.2 0 4-1.8 4-4s-1.8-4-4-4-4 1.8-4 4 1.8 4 4 4zm0-6c1.1 0 2 .9 2 2s-.9 2-2 2-2-.9-2-2 .9-2 2-2zM13 22c-2.2 0-4 1.8-4 4s1.8 4 4 4 4-1.8 4-4-1.8-4-4-4zm0 6c-1.1 0-2-.9-2-2s.9-2 2-2 2 .9 2 2-.9 2-2 2z"/>
<path d="M60.3 9.1c-.4-.1-.8 0-1.1.3l-8.5 10.2c-.7.9-1.9 1.4-3 1.4H45v-6c0-3.3-2.7-6-6-6H9c-3.3 0-6 2.7-6 6v39c0 .4.3.8.7.9.1.1.2.1.3.1.3 0 .6-.1.8-.4l8.5-10.2c.8-.9 1.9-1.4 3.1-1.4H19v6c0 3.3 2.7 6 6 6h30c3.3 0 6-2.7 6-6V10c0-.4-.3-.8-.7-.9zM11.7 43.2l-6.7 8V15c0-2.2 1.8-4 4-4h30c2.2 0 4 1.8 4 4v22c0 2.2-1.8 4-4 4H16.3c-1.7 0-3.4.8-4.6 2.2zM59 49c0 2.2-1.8 4-4 4H25c-2.2 0-4-1.8-4-4v-6h18c3.3 0 6-2.7 6-6V23h2.7c1.8 0 3.5-.8 4.6-2.2l6.7-8.1V49z"/>
<path d="M47 38c0 2.2 1.8 4 4 4s4-1.8 4-4-1.8-4-4-4-4 1.8-4 4zm6 0c0 1.1-.9 2-2 2s-2-.9-2-2 .9-2 2-2 2 .9 2 2z"/>
</symbol>
<symbol  id="icon-learner" class="aiconify aiconify--emojione-monotone" viewBox="0 0 64 64" xmlns="http://www.w3.org/2000/svg">
<path d="M32 2C15.432 2 2 15.432 2 32s13.432 30 30 30 30-13.432 30-30S48.568 2 32 2m18.103 9.324a16.418 16.418 0 0 0-8.979-.915c-.703.135-.192 2.27.388 2.156 4.168-.748 8.456.4 11.69 3.133.163.142.469.015.765-.222a27.491 27.491 0 0 1 4.06 7.66C55.73 19.456 51.657 17 47 17c-4.533 0-8.521 2.323-10.848 5.842-2.688-1.168-5.805-1.061-8.301.007C25.525 19.326 21.537 17 17 17c-4.657 0-8.73 2.457-11.026 6.137a27.468 27.468 0 0 1 4.136-7.758c.27.197.538.299.686.169a14.233 14.233 0 0 1 11.692-3.133c.58.113 1.092-2.021.389-2.156a16.411 16.411 0 0 0-8.672.8C19.006 6.973 25.218 4.5 32 4.5c6.928 0 13.262 2.581 18.103 6.824M57 30c0 5.521-4.479 10-10 10s-10-4.479-10-10c0-5.524 4.479-10 10-10s10 4.476 10 10m-29.999 0c0 5.523-4.479 10-10.001 10-5.522 0-10-4.477-10-10 0-5.524 4.477-10 10-10s10.001 4.476 10.001 10M32 59.5c-14.563 0-26.511-11.379-27.436-25.712C6.187 39.119 11.139 43 17 43c7.18 0 13-5.82 13-13 0-1.276-.191-2.506-.534-3.671 1.53-.436 3.54-.434 5.068.001A12.964 12.964 0 0 0 34 30c0 7.18 5.82 13 13 13 5.861 0 10.813-3.881 12.436-9.212C58.511 48.121 46.563 59.5 32 59.5"/>
<ellipse cx="20" cy="30.5" rx="4" ry="5"/>
<ellipse cx="44" cy="30.5" rx="4" ry="5"/>
<path d="M41.404 45.15c-3.223 2.269-8.353 3.834-13.66 2.433-1.421-.377-2.535 3.31-1.018 3.733 5.767 1.55 12.049.429 16.93-3.014 1.205-.868-1.054-4.027-2.252-3.152"/>
</symbol>
<symbol viewBox="0 0 64 64" id="icon-professional" xmlns="http://www.w3.org/2000/svg">
<path d="m44.016 45.197-.007.02c-.704 2.005-1.579 4.5-3.985 5.28a4.266 4.266 0 0 1-1.32.207c-1.746 0-3.238-.976-4.675-1.963l3.586 12.098a1.302 1.302 0 0 0 2.355.315L42.543 57a1.302 1.302 0 0 1 1.357-.592l4.795.937a1.302 1.302 0 0 0 1.37-1.942ZM24.587 50.704a4.268 4.268 0 0 1-1.32-.206c-2.22-.721-3.133-2.896-3.814-4.803L13.7 55.403a1.302 1.302 0 0 0 1.37 1.942l4.795-.937a1.302 1.302 0 0 1 1.357.592l2.573 4.154a1.302 1.302 0 0 0 2.355-.316l3.706-12.502-.401.274c-1.497 1.03-3.044 2.094-4.867 2.094Z"/>
<path d="M56.254 24.71c0-2.413-4.752-4.045-5.459-6.223-.733-2.256 2.127-6.365.76-8.244-1.38-1.897-6.181-.44-8.078-1.82-1.879-1.367-1.968-6.39-4.225-7.123-2.177-.707-5.193 3.281-7.606 3.281S26.217.593 24.04 1.301c-2.257.732-2.346 5.755-4.224 7.122-1.897 1.38-6.698-.077-8.079 1.82-1.367 1.878 1.493 5.988.76 8.244-.707 2.178-5.46 3.81-5.46 6.223s4.753 4.045 5.46 6.223c.733 2.256-2.126 6.365-.76 8.244 1.381 1.897 6.182.44 8.079 1.82 1.878 1.367 1.968 6.39 4.224 7.123 2.178.707 5.194-3.281 7.607-3.281s5.429 3.988 7.606 3.28c2.256-.732 2.346-5.755 4.224-7.122 1.897-1.38 6.698.077 8.079-1.82 1.367-1.878-1.493-5.987-.76-8.244.706-2.177 5.458-3.81 5.458-6.223ZM31.652 37.831A13.121 13.121 0 1 1 44.773 24.71a13.121 13.121 0 0 1-13.12 13.121Z"/>
<path d="M37.414 21.55h-2.463a1.337 1.337 0 0 1-1.272-.925l-.761-2.343a1.338 1.338 0 0 0-2.544 0l-.761 2.343a1.338 1.338 0 0 1-1.272.924h-2.464a1.337 1.337 0 0 0-.786 2.42l1.993 1.448a1.338 1.338 0 0 1 .486 1.495l-.761 2.343a1.338 1.338 0 0 0 2.058 1.495l1.993-1.448a1.337 1.337 0 0 1 1.572 0l1.993 1.448a1.338 1.338 0 0 0 2.058-1.496l-.761-2.342a1.338 1.338 0 0 1 .486-1.495l1.993-1.449a1.337 1.337 0 0 0-.787-2.419Z"/>
</symbol>

</defs>
</svg>
